<svg width="236" height="209" viewBox="0 0 236 209" fill="none" xmlns="http://www.w3.org/2000/svg">
<g opacity="0.3">
<path d="M113.115 206.472C148.87 206.472 177.855 183.891 177.855 156.038C177.855 128.184 148.87 105.604 113.115 105.604C77.3603 105.604 48.375 128.184 48.375 156.038C48.375 183.891 77.3603 206.472 113.115 206.472Z" fill="#AFAFAF"/>
</g>
<path d="M98.2384 164.583C94.1138 161.342 88.1432 162.059 84.904 166.186L80.9149 171.267C77.6757 175.394 78.3936 181.367 82.5183 184.609C86.6429 187.85 92.6134 187.133 95.8526 183.006L99.8418 177.925C103.081 173.798 102.363 167.825 98.2384 164.583Z" fill="#F49000"/>
<path d="M127.687 164.373C131.812 161.132 137.783 161.85 141.022 165.976L145.011 171.057C148.25 175.184 147.532 181.157 143.408 184.399C139.283 187.64 133.312 186.923 130.073 182.796L126.084 177.715C122.845 173.588 123.563 167.615 127.687 164.373Z" fill="#F49000"/>
<path d="M124.195 56.0968C116.988 55.4552 111.676 53.7659 106.664 51.4892C102.089 49.4116 97.7125 47.4244 92.2303 46.9363C73.8498 45.3 66.1556 65.0761 65.7994 71.7668L61.5813 119.27C57.4652 165.624 94.6474 181.551 112.869 183.64C131.174 184.803 170.579 175.694 174.695 129.34L178.913 81.8369C179.741 75.1882 175.652 54.3631 157.272 52.7267C151.79 52.2387 147.131 53.4215 142.262 54.6584C136.928 56.014 131.401 56.7384 124.195 56.0968Z" fill="#58CC02"/>
<path d="M40.5467 110.612C31.6035 111.633 35.5606 126.173 43.4767 136.089C50.8389 145.312 68.4643 152.58 74.6629 153.103L124.889 155.691L126.479 101.944C126.479 101.944 49.4898 109.59 40.5467 110.612Z" fill="#58CC02"/>
<path d="M186.313 158.413C190.31 166.374 173.719 173.521 161.405 170.087C151.093 167.21 137.921 160.759 136.344 157.279L93.7995 110.092L146.926 82.5381C146.926 82.5381 182.315 150.451 186.313 158.413Z" fill="#58CC02"/>
<path d="M120.017 162.257L134.149 161.515C134.907 161.475 135.46 162.055 135.244 162.66C134.2 165.567 130.988 167.707 127.254 167.902C123.519 168.098 120.194 166.302 118.99 163.513C118.739 162.932 119.259 162.296 120.017 162.257Z" fill="#8EE000"/>
<path d="M120.021 170.667C114.669 170.163 112.635 170.008 107.214 169.525C102.472 169.102 107.493 174.081 112.913 174.564C118.334 175.048 123.655 171.008 120.021 170.667Z" fill="#89E219"/>
<path d="M95.1171 158.124L108.966 161.058C109.709 161.215 110.079 161.915 109.699 162.44C107.869 164.963 104.163 166.189 100.504 165.414C96.8443 164.638 94.1433 162.056 93.7711 159.066C93.6929 158.443 94.3744 157.967 95.1171 158.124Z" fill="#8EE000"/>
<mask id="mask0_9001_2849" style="mask-type:luminance" maskUnits="userSpaceOnUse" x="37" y="39" width="162" height="170">
<path d="M51.3086 39.4834L198.031 52.5456L184.155 208.814L37.4326 195.752L51.3086 39.4834Z" fill="white"/>
</mask>
<g mask="url(#mask0_9001_2849)">
<path d="M133.779 92.2856C126.077 98.1271 114.671 97.1112 108.777 90.0586C104.883 85.36 104.211 97.9212 106.778 127.527C112.042 127.996 115.77 128.328 117.854 128.513C125.539 129.089 129.367 129.539 129.367 129.539C129.348 129.754 141.481 86.444 133.779 92.2856Z" fill="#89E219"/>
<path d="M141.158 100.011L160.289 82.4565C161.362 81.5727 162.998 81.8282 163.431 83.1718C166.322 89.1957 164.913 96.3601 159.857 101.024C154.8 105.687 147.43 106.553 141.528 103.307C140.38 102.553 140.085 100.894 141.158 100.011Z" fill="#89E219"/>
<path d="M131.483 94.4696L150.605 77.0246C151.569 76.1311 153.204 76.3865 153.756 77.6322C156.647 83.6561 155.238 90.8191 150.182 95.4827C145.126 100.146 137.755 101.012 131.853 97.7664C130.705 97.0116 130.41 95.3534 131.483 94.4696Z" fill="#89E219"/>
<path d="M110.984 92.6489L94.9067 72.0685C94.0059 71.0089 92.789 71.0104 91.9166 72.1291C88.1195 77.5573 88.2447 84.857 92.4004 90.3411C96.5561 95.8252 103.659 97.9799 110.039 95.8285C111.303 95.2885 111.885 93.7085 110.984 92.6489Z" fill="#89E219"/>
<path d="M100.375 96.3851L84.7448 75.7347C83.8439 74.6751 82.1895 74.6376 81.417 75.8737C77.5104 81.2922 77.6355 88.5932 81.7912 94.0773C85.9469 99.5615 93.0494 101.716 99.4302 99.5647C100.694 99.0247 101.276 97.4448 100.375 96.3851Z" fill="#89E219"/>
<path d="M149.107 87.5596C163.763 87.6686 174.7 100.945 171.774 115.078L169.083 128.074C166.911 138.562 157.419 145.99 146.545 145.709C133.572 145.374 123.55 134.322 124.679 121.597L125.852 108.379C126.905 96.5222 137.016 87.4687 149.107 87.5596Z" fill="#89E219"/>
<path d="M94.6293 82.714C80.184 80.2309 67.0806 91.3658 67.4713 105.794L67.8318 119.063C68.1225 129.769 76.158 138.758 86.9104 140.404C99.7387 142.368 111.55 133.26 112.68 120.535L113.853 107.317C114.905 95.4602 106.547 84.7615 94.6293 82.714Z" fill="#89E219"/>
<path d="M95.1252 91.5693C85.0974 89.0614 75.3846 96.516 75.413 106.695L75.4426 117.466C75.4622 124.273 80.0966 130.244 86.766 132.054C96.0086 134.562 105.276 128.229 106.11 118.834L107.062 108.107C107.74 100.469 102.68 93.4586 95.1252 91.5693Z" fill="white"/>
<path d="M94.8823 99.2843C90 98.8494 85.8328 102.688 85.9479 107.512L86.1389 115.494C86.2325 119.394 89.2869 122.61 93.2327 122.961C97.5095 123.342 101.278 120.238 101.652 116.028L102.357 108.077C102.753 103.624 99.4058 99.6872 94.8823 99.2843Z" fill="#4B4B4B"/>
<path d="M86.4741 108.327C89.1993 108.569 91.6013 106.591 91.8394 103.909C92.0775 101.226 90.0616 98.8549 87.3365 98.6122C84.6113 98.3696 82.2093 100.347 81.9712 103.03C81.733 105.713 83.7489 108.084 86.4741 108.327Z" fill="white"/>
<path d="M147.059 96.1881C157.371 95.492 165.619 104.546 163.798 114.561L161.872 125.157C160.654 131.854 155.041 136.912 148.158 137.515C138.618 138.35 130.611 130.478 131.445 121.084L132.397 110.357C133.075 102.718 139.29 96.7124 147.059 96.1881Z" fill="white"/>
<path d="M144.605 103.707C140.081 103.304 136.094 106.587 135.698 111.04L134.993 118.991C134.619 123.201 137.782 126.923 142.059 127.304C146.004 127.655 149.577 125.03 150.356 121.208L151.95 113.385C152.913 108.657 149.487 104.142 144.605 103.707Z" fill="#4B4B4B"/>
<path d="M137.427 112.615C140.016 112.845 142.298 110.966 142.524 108.418C142.75 105.869 140.835 103.617 138.246 103.386C135.657 103.156 133.375 105.035 133.149 107.583C133.019 109.043 133.592 110.404 134.59 111.345C135.336 112.048 136.321 112.516 137.427 112.615Z" fill="white"/>
<path d="M126.498 128.198C126.891 123.773 123.489 119.77 118.993 119.369C114.498 118.969 110.444 122.308 110.051 126.733L109.821 129.323C109.428 133.748 112.831 137.752 117.326 138.152C121.822 138.553 125.876 135.213 126.268 130.788L126.498 128.198Z" fill="#F49000"/>
<path d="M124.51 125.414C124.741 122.811 122.21 120.409 118.927 120.117C115.644 119.825 112.73 121.741 112.499 124.345L112.364 125.868C112.133 128.472 114.664 130.873 117.947 131.165C121.229 131.458 124.143 129.541 124.374 126.938L124.51 125.414Z" fill="#B06800"/>
<path d="M126.323 132.798L125.821 138.459C125.367 143.568 121.213 147.379 116.55 146.964C111.887 146.549 108.469 142.063 108.922 136.954L109.424 131.293C109.878 126.184 114.032 122.372 118.695 122.788C123.359 123.203 126.776 127.689 126.323 132.798Z" fill="#F49000"/>
<path d="M124.445 130.704L124.111 134.469C123.725 138.817 120.834 142.118 117.659 141.835L116.626 141.743C113.451 141.46 111.186 137.701 111.572 133.353L111.906 129.587C112.292 125.239 115.183 121.939 118.358 122.221L119.391 122.313C122.566 122.596 124.831 126.356 124.445 130.704Z" fill="#A96606"/>
<path d="M117.468 136.328C113.8 136.001 112.181 138.152 112.181 138.152C112.181 138.152 113.289 141.518 116.957 141.845C121.042 142.209 122.487 139.173 122.487 139.173C122.487 139.173 121.115 136.652 117.468 136.328Z" fill="#FFCAFF"/>
<path d="M119.106 119.379C113.404 118.871 108.255 122.113 106.827 126.989L106.789 127.42C106.76 127.744 106.86 127.862 107.19 127.891L118.128 132.053C118.346 132.073 128.899 129.824 128.899 129.824C129.219 129.961 129.347 129.756 129.376 129.432L129.414 129.001C128.858 124.056 124.479 119.857 119.106 119.379Z" fill="#FFC200"/>
<path d="M116.087 123.522C116.985 123.118 119.235 122.897 121.069 124.074" stroke="#FFDE00" stroke-width="12.0467" stroke-linecap="round"/>
</g>
</svg>
